<?xml version="1.0" encoding="utf-8"?>
<!-- Generator: Adobe Illustrator 25.4.1, SVG Export Plug-In . SVG Version: 6.00 Build 0)  -->
<svg version="1.0" id="katman_1" xmlns="http://www.w3.org/2000/svg" xmlns:xlink="http://www.w3.org/1999/xlink" x="0px" y="0px"
	 viewBox="0 0 288 218" style="enable-background:new 0 0 288 218;" xml:space="preserve">
<style type="text/css">
	.st0{fill:#9AA0A6;}
	.st1{fill-rule:evenodd;clip-rule:evenodd;fill:#E8EAED;}
	.st2{fill-rule:evenodd;clip-rule:evenodd;fill:#F8F9FA;}
	.st3{fill:#4285F4;}
	.st4{fill:#34A853;}
	.st5{fill:#FBBC04;}
	.st6{fill:#EA4335;}
	.st7{fill-rule:evenodd;clip-rule:evenodd;fill:#C7C7C7;}
</style>
<path class="st0" d="M171.3,69.8l-2.5,2l-2.4-2c0-12.6-9.9-22.8-22.1-22.8s-22.1,10.2-22.1,22.8l-2.6,2l-2.3-2
	c0-15.3,12.1-27.7,27-27.7C159.1,42,171.3,54.5,171.3,69.8z"/>
<path class="st1" d="M91.3,69.8h105.9c2,0,3.6,1.5,3.7,3.5l2.9,52.6l-59.1,12.5l-60-12.5l2.9-52.6C87.7,71.3,89.3,69.8,91.3,69.8z"
	/>
<path class="st2" d="M203.8,125.9l2.6,46.1c0.1,1.4-0.6,2.8-1.9,3.5c-0.6,0.3-1.2,0.4-1.8,0.4H85.9c-1.4,0-2.8-0.7-3.5-2
	c-0.3-0.6-0.4-1.2-0.4-1.9l2.6-46.3H203.8L203.8,125.9z"/>
<path class="st3" d="M179.1,124c0-2.5-0.2-4.4-0.7-6.7h-33.6v13h18.9c-0.8,4.5-2.9,8.3-6.8,10.9v8.9h11.5
	C175.3,143.9,179.1,134.8,179.1,124z"/>
<path class="st4" d="M144.9,158.7c9.6,0,17.7-3.1,23.6-8.6l-11.5-8.9c-3.2,2.1-7.3,3.4-12.1,3.4c-9.3,0-17.1-6.2-19.9-14.6h-11.9
	v9.2C119,150.7,131,158.7,144.9,158.7z"/>
<path class="st5" d="M113.1,139.1l11.9-9.2c-0.7-2.1-1.1-4.4-1.1-6.7c0-2.3,0.4-4.6,1.1-6.7v-9.2h-11.9c-2.4,4.8-3.8,10.2-3.8,15.9
	v0C109.3,128.9,110.7,134.3,113.1,139.1z"/>
<path class="st6" d="M144.9,101.8c5.2,0,9.9,1.8,13.6,5.3L168.8,97c-6.2-5.7-14.2-9.3-23.8-9.3c-13.9,0-26,8-31.8,19.6l11.9,9.2
	C127.8,108.1,135.7,101.8,144.9,101.8z"/>
<path class="st7" d="M117.2,69.8c0-15.3,12.1-27.7,27-27.7c0,0,0,0,0,0c14.9,0,27,12.4,27,27.7h25.9c2,0,3.6,1.5,3.7,3.5l2.9,52.6
	l0,0l0,0.1v0l2.6,46c0.1,1.4-0.6,2.8-1.9,3.5c-0.6,0.3-1.2,0.5-1.8,0.5H85.9c-1.4,0-2.8-0.7-3.5-2c-0.3-0.6-0.4-1.2-0.4-1.9
	l2.6-46.3l0,0l2.9-52.6c0.1-2,1.7-3.5,3.7-3.5H117.2z M79.4,129.9L79.4,129.9L82.5,73c0.3-4.6,4.1-8.3,8.7-8.3h21.3
	c2.4-15.6,15.6-27.7,31.7-27.7c16.1,0,29.3,12.1,31.7,27.7h21.3c4.6,0,8.5,3.6,8.7,8.3c0,0,0,0,0,0l2.6,47.8l2.9,50.9
	c0.2,3.1-1.3,6.5-4.6,8.3c-1.3,0.7-2.7,1-4.2,1H85.9c-2.9,0-6.3-1.4-7.9-4.6c-0.8-1.4-1.1-3-1-4.4l0,0L79.4,129.9z M160.6,64.7
	c-2.1-7.4-8.7-12.7-16.4-12.7c-7.6,0-14.3,5.3-16.4,12.7H160.6z M122.7,64.7c2.2-10.2,11-17.8,21.5-17.8c0,0,0,0,0,0
	c10.5,0,19.3,7.6,21.5,17.8c0.4,1.6,0.5,3.3,0.5,5h-44.2C122.1,68,122.3,66.4,122.7,64.7z"/>
</svg>
